<?xml version="1.0" encoding="UTF-8" standalone="no"?>
<!-- Created with Inkscape (http://www.inkscape.org/) -->

<svg
   xmlns:dc="http://purl.org/dc/elements/1.1/"
   xmlns:cc="http://creativecommons.org/ns#"
   xmlns:rdf="http://www.w3.org/1999/02/22-rdf-syntax-ns#"
   xmlns:svg="http://www.w3.org/2000/svg"
   xmlns="http://www.w3.org/2000/svg"
   xmlns:sodipodi="http://sodipodi.sourceforge.net/DTD/sodipodi-0.dtd"
   xmlns:inkscape="http://www.inkscape.org/namespaces/inkscape"
   width="1000"
   height="1000"
   viewBox="0 0 264.58333 264.58334"
   version="1.1"
   id="svg4524"
   inkscape:version="0.92.3 (2405546, 2018-03-11)"
   sodipodi:docname="SecretHidden.svg"
   inkscape:export-filename="D:\Users\Zaxev\Documents\GameDevelopment\Megaman Makeshift\Assets\UIStuffs\Images\GeneralUIStuff\SecretHidden.png"
   inkscape:export-xdpi="96.071098"
   inkscape:export-ydpi="96.071098">
  <defs
     id="defs4518" />
  <sodipodi:namedview
     id="base"
     pagecolor="#ffffff"
     bordercolor="#666666"
     borderopacity="1.0"
     inkscape:pageopacity="0.0"
     inkscape:pageshadow="2"
     inkscape:zoom="0.62053673"
     inkscape:cx="550.4831"
     inkscape:cy="315.35231"
     inkscape:document-units="mm"
     inkscape:current-layer="layer1"
     showgrid="true"
     units="px"
     inkscape:window-width="1920"
     inkscape:window-height="1017"
     inkscape:window-x="-8"
     inkscape:window-y="-8"
     inkscape:window-maximized="1">
    <inkscape:grid
       type="xygrid"
       id="grid5069"
       empspacing="50" />
  </sodipodi:namedview>
  <metadata
     id="metadata4521">
    <rdf:RDF>
      <cc:Work
         rdf:about="">
        <dc:format>image/svg+xml</dc:format>
        <dc:type
           rdf:resource="http://purl.org/dc/dcmitype/StillImage" />
        <dc:title></dc:title>
      </cc:Work>
    </rdf:RDF>
  </metadata>
  <g
     inkscape:groupmode="layer"
     id="layer3"
     inkscape:label="Fill"
     sodipodi:insensitive="true">
    <path
       style="fill:#191919;fill-opacity:1;stroke:#191919;stroke-width:120.8631134;stroke-linecap:square;stroke-linejoin:bevel;stroke-miterlimit:4;stroke-dasharray:none;stroke-dashoffset:0;stroke-opacity:1"
       d="M 137.93701,750.07492 V 638.88086 h 12.08631 12.08631 v 30.99732 30.99733 l 18.91003,18.95943 18.91003,18.95942 h 99.9145 99.91448 l 18.95943,-18.91003 18.95943,-18.91003 v -31.04672 -31.04672 h 62.04306 62.04306 v 31.04672 31.04672 l 18.95943,18.91003 18.95942,18.91003 h 99.91349 99.91348 l 19.7168,-19.76424 19.71678,-19.76425 v -30.19251 -30.1925 h 11.28056 11.28056 V 750.07492 861.26898 H 825.24524 788.9863 V 831.02901 800.78906 L 769.22206,781.07227 749.45781,761.35548 H 499.67213 249.88644 l -18.91003,18.95942 -18.91003,18.95943 v 30.99732 30.99733 H 175.0017 137.93701 Z"
       id="path6585"
       inkscape:connector-curvature="0"
       transform="scale(0.26458333)" />
    <path
       style="fill:#191919;fill-opacity:1;stroke:#191919;stroke-width:120.8631134;stroke-linecap:square;stroke-linejoin:bevel;stroke-miterlimit:4;stroke-dasharray:none;stroke-dashoffset:0;stroke-opacity:1"
       d="M 137.93701,224.72326 V 137.70182 H 410.69036 683.4437 l 87.01026,87.02144 87.01025,87.02144 h -359.7636 -359.7636 z"
       id="path6587"
       inkscape:connector-curvature="0"
       transform="scale(0.26458333)" />
    <path
       style="fill:#323232;fill-opacity:1;stroke:#323232;stroke-width:120.8631134;stroke-linecap:square;stroke-linejoin:bevel;stroke-miterlimit:4;stroke-dasharray:none;stroke-dashoffset:0;stroke-opacity:1"
       d="M 637.50454,630.39525 V 599.34853 L 618.54511,580.4385 599.58568,561.52846 h -87.57252 c -82.75226,0 -87.51124,-0.15518 -86.45902,-2.82013 8.54574,-21.64356 11.01299,-32.57421 11.75756,-52.08944 1.71691,-45.0007 -14.53761,-83.2705 -47.17367,-111.06614 -4.43164,-3.77436 -8.35969,-7.13354 -8.729,-7.46482 -0.3693,-0.33129 107.50103,-0.60235 239.71183,-0.60235 h 240.38331 v 87.02144 87.02144 h -30.99733 -30.99733 l -18.95942,18.91004 -18.95943,18.91003 v 31.04672 31.04672 H 699.5476 637.50454 Z"
       id="path6589"
       inkscape:connector-curvature="0"
       transform="scale(0.26458333)" />
    <path
       style="fill:#323232;fill-opacity:1;stroke:#323232;stroke-width:120.8631134;stroke-linecap:square;stroke-linejoin:bevel;stroke-miterlimit:4;stroke-dasharray:none;stroke-dashoffset:0;stroke-opacity:1"
       d="m 137.93701,474.50702 v -87.02144 h 40.06044 40.06044 l -14.84686,14.90645 c -22.37608,22.4659 -34.52312,45.75825 -39.64092,76.01279 -3.89686,23.03685 0.71702,58.83414 9.90415,76.8424 l 3.20445,6.28124 h -19.37085 -19.37085 z"
       id="path6591"
       inkscape:connector-curvature="0"
       transform="scale(0.26458333)" />
    <path
       style="fill:#323232;fill-opacity:1;stroke:#323232;stroke-width:120.8631134;stroke-linecap:square;stroke-linejoin:bevel;stroke-miterlimit:4;stroke-dasharray:none;stroke-dashoffset:0;stroke-opacity:1"
       d="m 237.85051,642.90963 c 0,-10.19279 0.30247,-18.53235 0.67216,-18.53235 0.36968,0 4.17687,1.50479 8.46041,3.34398 23.95131,10.28376 58.35906,13.00959 84.33491,6.68115 7.5338,-1.83544 17.20254,-4.84196 21.48608,-6.68115 4.28355,-1.83919 8.09074,-3.34398 8.46042,-3.34398 0.36968,0 0.67215,8.33956 0.67215,18.53235 v 18.53234 h -62.04306 -62.04307 z"
       id="path6593"
       inkscape:connector-curvature="0"
       transform="scale(0.26458333)" />
    <path
       style="fill:none;stroke:#ffffff;stroke-width:19.84375;stroke-linecap:butt;stroke-linejoin:bevel;stroke-miterlimit:4;stroke-dasharray:none;stroke-opacity:1"
       d="M 26.458333,13.229167 13.229167,26.458333 V 238.14789 l 13.229166,13.20628 39.687499,-1e-5 L 79.374999,238.125 V 224.89583 H 185.20833 V 238.125 l 13.22917,13.22917 H 238.125 L 251.35417,238.125 V 79.375 l -1e-5,-13.229168 -52.91666,-52.916665 z"
       id="path6629"
       inkscape:connector-curvature="0"
       sodipodi:nodetypes="cccccccccccccccc" />
  </g>
  <g
     inkscape:groupmode="layer"
     id="layer2"
     inkscape:label="Grids"
     style="display:inline"
     sodipodi:insensitive="true">
    <path
       transform="translate(0,-32.416652)"
       style="fill:none;stroke:#000000;stroke-width:19.84375;stroke-linecap:square;stroke-linejoin:miter;stroke-miterlimit:4;stroke-dasharray:none;stroke-opacity:1"
       d="m 145.52083,244.08332 v 26.45833"
       id="path5077"
       inkscape:connector-curvature="0"
       sodipodi:nodetypes="cc" />
    <path
       transform="translate(0,-32.416652)"
       style="fill:none;stroke:#000000;stroke-width:19.84375;stroke-linecap:square;stroke-linejoin:miter;stroke-miterlimit:4;stroke-dasharray:none;stroke-opacity:1"
       d="m 171.97917,244.08332 v 26.45833"
       id="path5079"
       inkscape:connector-curvature="0"
       sodipodi:nodetypes="cc" />
    <path
       transform="translate(0,-32.416652)"
       style="fill:none;stroke:#000000;stroke-width:19.84375;stroke-linecap:square;stroke-linejoin:miter;stroke-miterlimit:4;stroke-dasharray:none;stroke-opacity:1"
       d="m 119.0625,244.08332 v 26.45833"
       id="path5081"
       inkscape:connector-curvature="0"
       sodipodi:nodetypes="cc" />
    <path
       style="fill:none;stroke:#000000;stroke-width:19.84375;stroke-linecap:square;stroke-linejoin:miter;stroke-miterlimit:4;stroke-dasharray:none;stroke-opacity:1"
       d="M 92.604167,211.66667 V 238.125"
       id="path5081-0"
       inkscape:connector-curvature="0"
       sodipodi:nodetypes="cc" />
    <rect
       style="fill:#646464;fill-opacity:1;stroke:#646464;stroke-width:19.84375;stroke-linecap:square;stroke-linejoin:bevel;stroke-miterlimit:4;stroke-dasharray:none;stroke-dashoffset:0;stroke-opacity:1"
       id="rect6595"
       width="132.29166"
       height="13.229167"
       x="105.83334"
       y="119.0625"
       ry="6.614583"
       rx="5.6843419e-014" />
  </g>
  <g
     inkscape:label="Layer 1"
     inkscape:groupmode="layer"
     id="layer1"
     transform="translate(0,-32.416653)">
    <path
       style="fill:none;stroke:#000000;stroke-width:19.84375;stroke-linecap:butt;stroke-linejoin:bevel;stroke-miterlimit:4;stroke-dasharray:none;stroke-opacity:1"
       d="m 26.458333,58.874986 v 79.375004 52.91666 79.375 h 39.6875 V 244.08332 H 198.4375 v 26.45833 H 238.125 V 138.24999 111.79165 L 185.20833,58.874986 Z"
       id="path5071"
       inkscape:connector-curvature="0"
       sodipodi:nodetypes="ccccccccccccc" />
    <path
       style="fill:none;stroke:#000000;stroke-width:19.84375;stroke-linecap:butt;stroke-linejoin:miter;stroke-miterlimit:4;stroke-dasharray:none;stroke-opacity:1"
       d="M 26.458333,125.02082 H 238.125"
       id="path5073"
       inkscape:connector-curvature="0"
       sodipodi:nodetypes="cc" />
    <path
       style="fill:none;stroke:#000000;stroke-width:19.84375;stroke-linecap:butt;stroke-linejoin:bevel;stroke-miterlimit:4;stroke-dasharray:none;stroke-opacity:1"
       d="m 238.125,191.16665 h -26.45833 v 26.45834 H 158.75 v -26.45834 h -52.91667 v 26.45834 H 52.916667 V 191.16665 H 26.458333"
       id="path5075"
       inkscape:connector-curvature="0"
       sodipodi:nodetypes="cccccccccc" />
    <circle
       style="fill:#646464;fill-opacity:1;stroke:#000000;stroke-width:19.84375;stroke-linecap:square;stroke-linejoin:bevel;stroke-miterlimit:4;stroke-dasharray:none;stroke-dashoffset:0;stroke-opacity:1"
       id="path5114"
       cx="79.375"
       cy="164.70831"
       r="26.458332" />
  </g>
</svg>
